<svg xmlns="http://www.w3.org/2000/svg">

 <style> :root svg:not(:target) { display: none } </style>

  <svg id="academy-icon" viewBox="0 0 29 35">
    <path fill="#000" d="M14.65.45h-.1l-13.5 1.4v24.7l13.5 8 13.4-8V1.85L14.65.45Zm11.4 12.1-11.5-6.8v-.1h-.1l-.1-.1v.1l-11.4 6.9v-9l11.5-1.2 11.6 1.2v9Zm-11.6-5.3 11.5 6.7-4.5 2.6-7.1-4.2v1.4l5.9 3.5-.9.5-5-3v1.4l3.8 2.3-.8.5-3-1.8v1.4l1.9 1.1-1.8 1.1-11.4-6.7 11.4-6.8Zm-11.5 8.3 11.4 6.8v1l-7.9-4.7v1.4l8 4.8v1.1l-8-4.7v1.4l8 4.8 8.1-4.9v-5.2l3.4-2v10l-11.5 6.9-11.5-6.8v-9.9Z"/>
  </svg>

  <svg id="icon-house-mobile" viewBox="0 0 40 38">
    <path fill="#81B3D2" d="M15.9 33.8h8.35V21.65H15.9V33.8Zm6.84-1.47h-5.32v-9.2h5.27v9.2h.05Z"/><path fill="#81B3D2" d="m38.4 20.63 1.1-1.07-5.17-5.04V.8h-7.2V7.5L19.97.58.5 19.61l1.1 1.07 4.07-3.97v19.23H3.63v1.48H37v-1.48h-2.66V16.66l4.07 3.97ZM28.64 2.3h4.13v10.74l-4.13-4.02V2.3Zm4.18 33.58H7.23v-20.7L19.97 2.71l12.8 12.46v20.7h.05Z"/><path fill="#81B3D2" d="M16.06 14.42a4.01 4.01 0 0 0 4.02 3.97 4.03 4.03 0 0 0 4.07-3.97 3.98 3.98 0 0 0-4.07-3.92 3.94 3.94 0 0 0-4.02 3.92Zm4.02-2.54a2.59 2.59 0 0 1 2.6 2.54 2.58 2.58 0 0 1-2.6 2.55 2.59 2.59 0 0 1-2.61-2.55c0-1.37 1.2-2.54 2.6-2.54ZM10.89 21.65H9.32v1.98h1.57v-1.98ZM13.97 21.65H12.4v1.98h1.57v-1.98ZM10.89 24.7H9.32v1.98h1.57V24.7ZM13.97 24.7H12.4v1.98h1.57V24.7ZM27.54 21.65h-1.56v1.98h1.56v-1.98ZM30.68 21.65H29.1v1.98h1.57v-1.98ZM27.54 24.7h-1.56v1.98h1.56V24.7ZM30.68 24.7H29.1v1.98h1.57V24.7Z"/>
  </svg>

  <svg id="icon-burger-mobile" viewBox="0 0 40 36">
    <path fill="#81B3D2" d="M37.74 23.85H2.26A2.23 2.23 0 0 0 0 26.03v1.77c0 1.17 1 2.13 2.26 2.13h.52v.5a5.12 5.12 0 0 0 5.2 5.02h24.04c2.89 0 5.2-2.28 5.2-5.01v-.51h.52c1.21 0 2.26-.96 2.26-2.18v-1.77c0-1.12-1-2.13-2.26-2.13Zm-2.04 6.59c0 1.92-1.63 3.49-3.63 3.49H7.93c-2 0-3.63-1.57-3.63-3.5v-.5h31.4v.5Zm2.73-2.69c0 .36-.32.66-.69.66H2.26a.68.68 0 0 1-.69-.66v-1.77c0-.3.32-.61.69-.61H37.8c.36 0 .68.3.68.66v1.72h-.05ZM8.5 19.75l2.84 2.02 2.89-2.02 2.88 2.02L20 19.75l2.83 2.02 2.9-2.02 2.88 2.02 2.89-2.02 2.88 2.02 3.31-2.38-.9-1.21-2.4 1.67-2.9-2.03-2.88 2.03-2.89-2.03-2.89 2.03L20 17.82l-2.89 2.03-2.88-2.03-2.9 2.03-2.83-2.03-2.88 2.03-2.42-1.67-.94 1.21 3.36 2.38 2.88-2.02ZM37.22 16.3c0-.3.05-1.31 0-1.52C36.85 6.88 29.29.55 20 .55 10.7.55 3.1 6.88 2.73 14.78v1.52h34.49ZM20 2.07c8.4 0 15.33 5.67 15.64 12.71H4.3C4.67 7.74 11.6 2.07 20 2.07Z"/><path fill="#81B3D2" d="M20 9.16c.58 0 1.05-.45 1.05-1.01S20.58 7.14 20 7.14c-.58 0-1.05.45-1.05 1 0 .57.47 1.02 1.05 1.02ZM15.8 6.68c.58 0 1.05-.45 1.05-1.01s-.47-1.02-1.05-1.02c-.58 0-1.05.46-1.05 1.02s.47 1 1.05 1ZM24.2 6.68c.58 0 1.05-.45 1.05-1.01s-.47-1.02-1.05-1.02c-.58 0-1.05.46-1.05 1.02s.47 1 1.05 1Z"/>
  </svg>

  <svg id="icon-gift-mobile" viewBox="0 0 32 38">
    <path fill="#81B3D2" d="M30.58 11.2h-12.4c6.91-3.44 7.47-5.62 7.22-6.83-.56-1.98-2.85-3.5-4.98-2.69-2.8 1.07-3.56 5.22-4.32 8.2-.96-3.03-1.88-6.88-4.06-8.85A3.7 3.7 0 0 0 9.14 0c-2.03.2-4.92 2.69-3.7 5.47 1.11 2.69 4.82 4.4 7.3 5.78H1.43c-.81 0-1.42.65-1.42 1.41v5.68c0 .8.66 1.42 1.42 1.42h.15V38h28.96V19.77h.05c.81 0 1.42-.66 1.42-1.42v-5.68c0-.8-.66-1.46-1.42-1.46Zm-9.35-8.25c1.07-.15 2.5.66 2.64 1.62.2 1.37-1.67 2.63-2.54 3.2-1.27.85-2.49 1.3-3.65 2.02.4-1.88 1.27-6.54 3.55-6.84ZM9.75 7.91c-1.12-.76-3.25-2.23-3.2-3.9C6.6 2.2 9.45.72 10.97 2.1c1.93 1.67 2.85 5.57 3.56 8.3-1.63-.8-3.15-1.41-4.78-2.48Zm3 28.57h-9.7V19.77h9.7v16.71Zm0-18.23H1.52v-5.52h11.23v5.52Zm5.08 18.23h-3.6V12.73h3.6v23.75Zm11.17 0h-9.65V19.77h9.7v16.71H29Zm1.48-18.23H19.35v-5.52h11.13v5.52Z"/>
  </svg>

  <svg id="icon-vk" viewBox="0 0 24 24">
    <g clip-path="url(#a)"><path fill="#fff" fill-rule="evenodd" d="M23.45 5.95c.17-.55 0-.95-.8-.95h-2.62c-.67 0-.98.35-1.14.73 0 0-1.34 3.2-3.23 5.27-.61.6-.89.8-1.22.8-.17 0-.42-.2-.42-.74V5.95c0-.66-.18-.95-.74-.95H9.15c-.42 0-.67.3-.67.6 0 .61.95.76 1.05 2.5v3.8c0 .84-.16.99-.5.99-.88 0-3.05-3.21-4.33-6.89-.25-.71-.5-1-1.17-1H.9c-.75 0-.9.35-.9.73 0 .68.89 4.07 4.14 8.55C6.32 17.34 9.38 19 12.15 19c1.67 0 1.88-.37 1.88-1v-2.32c0-.73.16-.88.69-.88.38 0 1.05.2 2.61 1.67C19.11 18.22 19.4 19 20.41 19h2.62c.75 0 1.13-.37.91-1.1-.24-.72-1.09-1.77-2.21-3.02-.62-.7-1.54-1.47-1.81-1.86-.4-.49-.28-.7 0-1.14 0 0 3.2-4.43 3.53-5.93Z" clip-rule="evenodd"/></g><defs><clipPath id="a"><path fill="#fff" d="M0 0h24v24H0z"/></clipPath></defs>
  </svg>

  <svg id="icon-tg" viewBox="0 0 22 18">
    <path fill="#fff" d="m21.44 1.62-3.17 14.95c-.24 1.05-.86 1.31-1.75.82l-4.83-3.56-2.33 2.24c-.25.26-.47.47-.97.47l.35-4.91 8.95-8.09c.39-.35-.09-.54-.6-.2L6.01 10.32 1.26 8.82C.22 8.5.21 7.8 1.48 7.3L20.1.11c.87-.32 1.62.2 1.34 1.51Z"/>
  </svg>

  <svg id="icon-youtube" viewBox="0 0 20 14">
    <path fill="#fff" d="M17.18 0H2.81C1.31 0 0 1.3 0 2.8v8.3C0 12.7 1.3 14 2.81 14h14.37A2.8 2.8 0 0 0 20 11.2V2.8c.1-1.5-1.2-2.8-2.8-2.8ZM7.03 10.4V3.6L13.87 7l-6.84 3.4Z"/>
  </svg>


</svg>
