<svg xmlns="http://www.w3.org/2000/svg"><style>:root svg:not(:target){display:none}</style><svg fill="none" viewBox="0 0 29 35" id="academy-icon"><path fill="#000" d="M14.65.45h-.1l-13.5 1.4v24.7l13.5 8 13.4-8V1.85L14.65.45Zm11.4 12.1-11.5-6.8v-.1h-.1l-.1-.1v.1l-11.4 6.9v-9l11.5-1.2 11.6 1.2v9Zm-11.6-5.3 11.5 6.7-4.5 2.6-7.1-4.2v1.4l5.9 3.5-.9.5-5-3v1.4l3.8 2.3-.8.5-3-1.8v1.4l1.9 1.1-1.8 1.1-11.4-6.7 11.4-6.8Zm-11.5 8.3 11.4 6.8v1l-7.9-4.7v1.4l8 4.8v1.1l-8-4.7v1.4l8 4.8 8.1-4.9v-5.2l3.4-2v10l-11.5 6.9-11.5-6.8v-9.9Z"></path></svg><svg fill="none" viewBox="0 0 74 69" id="icon-burger-desktop"><path fill="#81B3D2" d="M69.05 46H4.26c-2.3 0-4.12 2-4.12 4.3v3.5c0 2.3 1.82 4.2 4.12 4.2h.96v1c0 5.5 4.31 9.9 9.49 9.9h43.9c5.27 0 9.49-4.5 9.49-9.9v-1h.95c2.2 0 4.13-1.9 4.13-4.3v-3.5c0-2.2-1.83-4.2-4.13-4.2Zm-3.73 13c0 3.8-2.97 6.9-6.62 6.9H14.61C10.97 65.9 8 62.8 8 59v-1h57.32v1Zm4.98-5.3c0 .7-.57 1.3-1.25 1.3H4.26a1.3 1.3 0 0 1-1.24-1.3v-3.5c0-.6.57-1.2 1.24-1.2h64.89c.67 0 1.25.6 1.25 1.3v3.4h-.1ZM15.67 37.9l5.17 4 5.28-4 5.27 4 5.27-4 5.17 4 5.28-4 5.27 4 5.27-4 5.27 4 6.04-4.7-1.63-2.4-4.41 3.3-5.27-4-5.27 4-5.27-4-5.28 4-5.17-4-5.27 4-5.27-4-5.28 4-5.17-4-5.27 4-4.41-3.3-1.73 2.4 6.14 4.7 5.27-4ZM68.1 31.1c0-.6.1-2.6 0-3C67.42 12.5 53.62 0 36.66 0 19.69 0 5.8 12.5 5.12 28.1v3H68.1ZM36.66 3c15.33 0 27.99 11.2 28.56 25.1H8C8.67 14.2 21.32 3 36.66 3Z"></path><path fill="#81B3D2" d="M36.66 17c1.06 0 1.92-.9 1.92-2s-.86-2-1.92-2-1.92.9-1.92 2 .86 2 1.92 2ZM28.99 12.1c1.06 0 1.92-.9 1.92-2s-.86-2-1.92-2-1.92.9-1.92 2 .86 2 1.92 2ZM44.33 12.1c1.05 0 1.91-.9 1.91-2s-.86-2-1.91-2c-1.06 0-1.92.9-1.92 2s.86 2 1.92 2Z"></path></svg><svg fill="none" viewBox="0 0 40 36" id="icon-burger-mobile"><path fill="#81B3D2" d="M37.74 23.85H2.26A2.23 2.23 0 0 0 0 26.03v1.77c0 1.17 1 2.13 2.26 2.13h.52v.5a5.12 5.12 0 0 0 5.2 5.02h24.04c2.89 0 5.2-2.28 5.2-5.01v-.51h.52c1.21 0 2.26-.96 2.26-2.18v-1.77c0-1.12-1-2.13-2.26-2.13Zm-2.04 6.59c0 1.92-1.63 3.49-3.63 3.49H7.93c-2 0-3.63-1.57-3.63-3.5v-.5h31.4v.5Zm2.73-2.69c0 .36-.32.66-.69.66H2.26a.68.68 0 0 1-.69-.66v-1.77c0-.3.32-.61.69-.61H37.8c.36 0 .68.3.68.66v1.72h-.05ZM8.5 19.75l2.84 2.02 2.89-2.02 2.88 2.02L20 19.75l2.83 2.02 2.9-2.02 2.88 2.02 2.89-2.02 2.88 2.02 3.31-2.38-.9-1.21-2.4 1.67-2.9-2.03-2.88 2.03-2.89-2.03-2.89 2.03L20 17.82l-2.89 2.03-2.88-2.03-2.9 2.03-2.83-2.03-2.88 2.03-2.42-1.67-.94 1.21 3.36 2.38 2.88-2.02ZM37.22 16.3c0-.3.05-1.31 0-1.52C36.85 6.88 29.29.55 20 .55 10.7.55 3.1 6.88 2.73 14.78v1.52h34.49ZM20 2.07c8.4 0 15.33 5.67 15.64 12.71H4.3C4.67 7.74 11.6 2.07 20 2.07Z"></path><path fill="#81B3D2" d="M20 9.16c.58 0 1.05-.45 1.05-1.01S20.58 7.14 20 7.14c-.58 0-1.05.45-1.05 1 0 .57.47 1.02 1.05 1.02ZM15.8 6.68c.58 0 1.05-.45 1.05-1.01s-.47-1.02-1.05-1.02c-.58 0-1.05.46-1.05 1.02s.47 1 1.05 1ZM24.2 6.68c.58 0 1.05-.45 1.05-1.01s-.47-1.02-1.05-1.02c-.58 0-1.05.46-1.05 1.02s.47 1 1.05 1Z"></path></svg><svg fill="none" viewBox="0 0 82 68" id="icon-burger-tablet"><path fill="#81B3D2" d="M76.53 45.33H5.36c-2.53 0-4.53 1.97-4.53 4.24v3.45c0 2.27 2 4.14 4.53 4.14h1.05v.98c0 5.42 4.74 9.76 10.43 9.76h48.21c5.8 0 10.43-4.43 10.43-9.76v-.98h1.05c2.42 0 4.53-1.87 4.53-4.24v-3.45c0-2.17-2-4.14-4.53-4.14Zm-4.1 12.81c0 3.75-3.27 6.8-7.27 6.8H16.73c-4 0-7.26-3.05-7.26-6.8v-.98h62.95v.98Zm5.47-5.22c0 .7-.63 1.28-1.37 1.28H5.36c-.74 0-1.37-.59-1.37-1.28v-3.45c0-.59.63-1.18 1.37-1.18h71.27c.74 0 1.37.59 1.37 1.28v3.35h-.1ZM17.89 37.35l5.68 3.94 5.8-3.94 5.78 3.94 5.8-3.94 5.68 3.94 5.79-3.94 5.79 3.94 5.8-3.94 5.78 3.94 6.63-4.63-1.79-2.37-4.84 3.26L64 33.6l-5.79 3.95-5.79-3.95-5.8 3.95-5.68-3.95-5.79 3.95-5.79-3.95-5.79 3.95-5.68-3.95-5.8 3.95-4.83-3.26-1.9 2.37 6.74 4.63 5.79-3.94ZM75.48 30.65c0-.6.1-2.56 0-2.96C74.74 12.32 59.58 0 40.94 0 22.31 0 7.04 12.32 6.31 27.7v2.95h69.17ZM40.94 2.95C57.8 2.96 71.7 14 72.32 27.7H9.47C10.2 14 24.1 2.96 40.94 2.96Z"></path><path fill="#81B3D2" d="M40.94 16.75c1.17 0 2.11-.88 2.11-1.97 0-1.09-.94-1.97-2.1-1.97-1.17 0-2.11.88-2.11 1.97 0 1.1.94 1.97 2.1 1.97ZM32.52 11.92c1.16 0 2.1-.88 2.1-1.97 0-1.09-.93-1.97-2.1-1.97-1.16 0-2.1.88-2.1 1.97 0 1.1.94 1.97 2.1 1.97ZM49.37 11.92c1.16 0 2.1-.88 2.1-1.97 0-1.09-.94-1.97-2.1-1.97-1.17 0-2.1.88-2.1 1.97 0 1.1.93 1.97 2.1 1.97Z"></path></svg><svg fill="none" viewBox="0 0 1200 57" id="icon-desktop-bottom"><path fill="#fff" d="M249.6 23.7 0 0v57h600L249.6 0v23.7ZM950.4 23.7V0L600 57h599.9V0L950.4 23.7Z"></path></svg><svg fill="none" viewBox="0 0 78 76" id="icon-gift-desktop"><path fill="#81B3D2" d="M74.44 22.12h-30c16.72-6.8 18.08-11.1 17.46-13.5-1.35-3.9-6.88-6.9-12.05-5.3-6.76 2.1-8.6 10.3-10.45 16.2-2.33-6-4.55-13.6-9.83-17.5a10.21 10.21 0 0 0-7.01-2c-4.92.4-11.93 5.3-8.98 10.8 2.7 5.3 11.68 8.7 17.7 11.4H3.88c-1.97 0-3.44 1.3-3.44 2.8v11.2c0 1.6 1.6 2.8 3.44 2.8h.37v36h70.08v-36h.12c1.97 0 3.45-1.3 3.45-2.8v-11.2c0-1.6-1.6-2.9-3.45-2.9ZM51.82 5.82c2.58-.3 6.02 1.3 6.4 3.2.48 2.7-4.06 5.2-6.15 6.3-3.08 1.7-6.03 2.6-8.86 4 .99-3.7 3.08-12.9 8.61-13.5Zm-27.79 9.8c-2.7-1.5-7.87-4.4-7.74-7.7.12-3.6 7-6.5 10.7-3.8 4.67 3.3 6.88 11 8.6 16.4-3.93-1.6-7.62-2.8-11.56-4.9Zm7.26 56.4H7.8v-33H31.3v33Zm0-36H4.1v-10.9H31.3v10.9Zm12.3 36h-8.74v-46.9h8.73v46.9Zm27.04 0H47.27v-33h23.48v33h-.12Zm3.57-36H47.27v-10.9H74.2v10.9Z"></path></svg><svg fill="none" viewBox="0 0 32 38" id="icon-gift-mobile"><path fill="#81B3D2" d="M30.58 11.2h-12.4c6.91-3.44 7.47-5.62 7.22-6.83-.56-1.98-2.85-3.5-4.98-2.69-2.8 1.07-3.56 5.22-4.32 8.2-.96-3.03-1.88-6.88-4.06-8.85A3.7 3.7 0 0 0 9.14 0c-2.03.2-4.92 2.69-3.7 5.47 1.11 2.69 4.82 4.4 7.3 5.78H1.43c-.81 0-1.42.65-1.42 1.41v5.68c0 .8.66 1.42 1.42 1.42h.15V38h28.96V19.77h.05c.81 0 1.42-.66 1.42-1.42v-5.68c0-.8-.66-1.46-1.42-1.46Zm-9.35-8.25c1.07-.15 2.5.66 2.64 1.62.2 1.37-1.67 2.63-2.54 3.2-1.27.85-2.49 1.3-3.65 2.02.4-1.88 1.27-6.54 3.55-6.84ZM9.75 7.91c-1.12-.76-3.25-2.23-3.2-3.9C6.6 2.2 9.45.72 10.97 2.1c1.93 1.67 2.85 5.57 3.56 8.3-1.63-.8-3.15-1.41-4.78-2.48Zm3 28.57h-9.7V19.77h9.7v16.71Zm0-18.23H1.52v-5.52h11.23v5.52Zm5.08 18.23h-3.6V12.73h3.6v23.75Zm11.17 0h-9.65V19.77h9.7v16.71H29Zm1.48-18.23H19.35v-5.52h11.13v5.52Z"></path></svg><svg fill="none" viewBox="0 0 67 75" id="icon-gift-tablet"><path fill="#81B3D2" d="M64.02 22.12H38.26c14.36-6.8 15.52-11.1 14.99-13.5-1.16-3.9-5.91-6.9-10.35-5.3-5.8 2.1-7.39 10.3-8.97 16.2-2-6-3.9-13.6-8.45-17.5a7.94 7.94 0 0 0-6.01-2c-4.22.4-10.24 5.3-7.7 10.8 2.31 5.3 10.02 8.7 15.2 11.4H3.41a2.87 2.87 0 0 0-2.95 2.8v11.2c0 1.6 1.37 2.8 2.95 2.8h.32V75H63.9V39.01h.1c1.7 0 2.96-1.3 2.96-2.8v-11.2c0-1.6-1.37-2.9-2.95-2.9ZM44.59 5.82c2.22-.3 5.17 1.3 5.5 3.2.41 2.7-3.5 5.2-5.29 6.3-2.64 1.7-5.17 2.6-7.6 4 .85-3.7 2.64-12.9 7.4-13.5Zm-23.86 9.8c-2.32-1.5-6.75-4.4-6.65-7.7.11-3.6 6.02-6.5 9.19-3.8 4.01 3.3 5.91 11 7.39 16.4-3.38-1.6-6.55-2.8-9.93-4.9ZM26.96 72H6.8V39.01h20.16v33Zm0-35.99H3.63v-10.9h23.33v10.9Zm10.56 36h-7.5V25.1h7.5v46.9Zm23.22 0H40.7V39h20.16v33h-.1Zm3.06-36H40.7v-10.9H63.8v10.9Z"></path></svg><svg fill="none" viewBox="0 0 81 73" id="icon-house-desktop"><path fill="#81B3D2" d="M31.96 65.3h17.02V41.4H31.96v23.9Zm13.93-2.9H35.04V44.3H45.8v18.1h.1Z"></path><path fill="#81B3D2" d="m77.8 39.4 2.24-2.1-10.53-9.9V.4H54.83v13.2L40.26 0 .57 37.4l2.24 2.1 8.3-7.8v37.8H6.96v2.9h67.98v-2.9H69.5V31.6l8.3 7.8Zm-19.89-36h8.4v21.1l-8.4-7.9V3.4Zm8.52 66H14.3V28.7L40.26 4.2l26.06 24.5v40.7h.1Z"></path><path fill="#81B3D2" d="M32.28 27.2c0 4.3 3.72 7.8 8.19 7.8 4.57 0 8.3-3.5 8.3-7.8s-3.73-7.7-8.3-7.7c-4.58 0-8.2 3.4-8.2 7.7Zm8.19-5c2.87 0 5.32 2.2 5.32 5 0 2.7-2.34 5-5.32 5-2.87 0-5.32-2.2-5.32-5 0-2.7 2.45-5 5.32-5ZM21.74 41.4h-3.19v3.9h3.2v-3.9ZM28.02 41.4h-3.19v3.9h3.2v-3.9ZM21.74 47.4h-3.19v3.9h3.2v-3.9ZM28.02 47.4h-3.19v3.9h3.2v-3.9ZM55.68 41.4h-3.2v3.9h3.2v-3.9ZM62.06 41.4h-3.19v3.9h3.2v-3.9ZM55.68 47.4h-3.2v3.9h3.2v-3.9ZM62.06 47.4h-3.19v3.9h3.2v-3.9Z"></path></svg><svg fill="none" viewBox="0 0 40 38" id="icon-house-mobile"><path fill="#81B3D2" d="M15.9 33.8h8.35V21.65H15.9V33.8Zm6.84-1.47h-5.32v-9.2h5.27v9.2h.05Z"></path><path fill="#81B3D2" d="m38.4 20.63 1.1-1.07-5.17-5.04V.8h-7.2V7.5L19.97.58.5 19.61l1.1 1.07 4.07-3.97v19.23H3.63v1.48H37v-1.48h-2.66V16.66l4.07 3.97ZM28.64 2.3h4.13v10.74l-4.13-4.02V2.3Zm4.18 33.58H7.23v-20.7L19.97 2.71l12.8 12.46v20.7h.05Z"></path><path fill="#81B3D2" d="M16.06 14.42a4.01 4.01 0 0 0 4.02 3.97 4.03 4.03 0 0 0 4.07-3.97 3.98 3.98 0 0 0-4.07-3.92 3.94 3.94 0 0 0-4.02 3.92Zm4.02-2.54a2.59 2.59 0 0 1 2.6 2.54 2.58 2.58 0 0 1-2.6 2.55 2.59 2.59 0 0 1-2.61-2.55c0-1.37 1.2-2.54 2.6-2.54ZM10.89 21.65H9.32v1.98h1.57v-1.98ZM13.97 21.65H12.4v1.98h1.57v-1.98ZM10.89 24.7H9.32v1.98h1.57V24.7ZM13.97 24.7H12.4v1.98h1.57V24.7ZM27.54 21.65h-1.56v1.98h1.56v-1.98ZM30.68 21.65H29.1v1.98h1.57v-1.98ZM27.54 24.7h-1.56v1.98h1.56V24.7ZM30.68 24.7H29.1v1.98h1.57V24.7Z"></path></svg><svg fill="none" viewBox="0 0 78 72" id="icon-house-tablet"><path fill="#81B3D2" d="M30.88 64.94h16.5V41.17h-16.5v23.77Zm13.5-2.89H33.88v-18h10.41v18h.1Z"></path><path fill="#81B3D2" d="m75.32 39.18 2.17-2.09-10.21-9.84V.4H53.05v13.12L38.92 0 .46 37.2l2.16 2.08 8.05-7.76v37.6H6.65V72h65.89v-2.88h-5.26v-37.7l8.04 7.76ZM56.04 3.38h8.14v20.98l-8.14-7.85V3.38Zm8.25 65.64H13.76V28.54L38.92 4.18l25.26 24.36v40.48h.1Z"></path><path fill="#81B3D2" d="M31.19 27.05c0 4.28 3.6 7.76 7.94 7.76 4.43 0 8.04-3.48 8.04-7.76 0-4.28-3.6-7.66-8.04-7.66-4.44 0-7.94 3.38-7.94 7.66Zm7.94-4.97a5.08 5.08 0 0 1 5.15 4.97 5.08 5.08 0 0 1-5.15 4.97 5.08 5.08 0 0 1-5.16-4.97 5.15 5.15 0 0 1 5.16-4.97ZM20.98 41.17h-3.1v3.88h3.1v-3.88ZM27.06 41.17h-3.09v3.88h3.1v-3.88ZM20.98 47.14h-3.1v3.88h3.1v-3.88ZM27.06 47.14h-3.09v3.88h3.1v-3.88ZM53.87 41.17h-3.09v3.88h3.1v-3.88ZM60.06 41.17h-3.1v3.88h3.1v-3.88ZM53.87 47.14h-3.09v3.88h3.1v-3.88ZM60.06 47.14h-3.1v3.88h3.1v-3.88Z"></path></svg><svg fill="none" viewBox="0 0 161 57" id="icon-left"><path fill="#fff" d="M-190.17 23.7-440 0v57H160.55L-190.17 0v23.7Z"></path></svg><svg fill="none" viewBox="0 0 23 21" id="icon-like-grey"><path fill="#000" d="m12.96 3.78-.62 3.05-.63 2.62h9.09v2.2l-3.03 7.25h-9.4V8.4l4.6-4.62ZM2.1 10.5v8.4-8.4ZM13.8 0 6.9 6.93c-.42.32-.63.84-.63 1.47v10.5c0 1.16.94 2.1 2.1 2.1h9.4c.84 0 1.57-.52 1.88-1.26l3.14-7.45c.1-.21.1-.53.1-.74v-2.1H23a2.1 2.1 0 0 0-2.1-2.1h-6.58l1.05-4.83v-.31c0-.43-.21-.84-.42-1.16L13.8 0ZM4.18 8.4H0V21h4.18V8.4Z" opacity=".3"></path></svg><svg viewBox="0 0 23 21" fill="none" id="icon-like-white"><path d="M12.9636 3.78L12.3364 6.825L11.7091 9.45H14.3227H20.8045V11.55C20.8045 11.55 20.8045 11.55 20.8045 11.655L17.7727 18.9H8.36364V8.4L12.9636 3.78ZM2.09091 10.5V18.9V10.5ZM13.8 0L6.9 6.93C6.48182 7.245 6.27273 7.77 6.27273 8.4V18.9C6.27273 20.055 7.21364 21 8.36364 21H17.7727C18.6091 21 19.3409 20.475 19.6545 19.74L22.7909 12.285C22.8955 12.075 22.8955 11.76 22.8955 11.55V9.45H23C23 8.295 22.0591 7.35 20.9091 7.35H14.3227L15.3682 2.52V2.205C15.3682 1.785 15.1591 1.365 14.95 1.05L13.8 0ZM4.18182 8.4H0V21H4.18182V8.4Z" fill="white"></path></svg><svg fill="none" viewBox="0 0 18 18" id="icon-mail"><path fill="#000" d="M9 11c-.3 0-.5-.1-1-.3L1 7v7c0 .5.5 1 1 1h14c.5 0 1-.5 1-1V7l-7 3.7c-.5.2-.7.3-1 .3Zm7-8H2c-.5 0-1 .5-1 1v.8L9 9l8-4.2V4c0-.5-.5-1-1-1Z"></path></svg><svg fill="none" viewBox="0 0 18 18" id="icon-phone"><path fill="#010101" d="M3.6 7.8c1.4 2.8 3.8 5.1 6.6 6.6l2.2-2.2c.3-.3.7-.4 1-.2 1.1.4 2.3.6 3.6.6.6 0 1 .4 1 1V17c0 .6-.4 1-1 1C7.6 18 0 10.4 0 1c0-.6.4-1 1-1h3.5c.6 0 1 .4 1 1 0 1.2.2 2.4.6 3.6.1.3 0 .7-.2 1L3.6 7.8Z"></path></svg><svg viewBox="0 0 48 54" fill="none" id="icon-polygon"><path d="M48 27L0 54L2.42273e-06 0L48 27Z" fill="white" fill-opacity="0.7"></path></svg><svg fill="none" viewBox="0 0 160 57" id="icon-right"><path fill="#fff" d="M351.27 23.7V0L.55 57H601V0L351.27 23.7Z"></path></svg><svg viewBox="0 0 159 37" fill="none" id="icon-stripe-left"><path fill-rule="evenodd" clip-rule="evenodd" d="M-225 0H159V37L-225 0Z" fill="white"></path></svg><svg viewBox="0 0 161 37" fill="none" id="icon-stripe-right"><path fill-rule="evenodd" clip-rule="evenodd" d="M384 0H0V37L384 0Z" fill="white"></path></svg><svg viewBox="0 0 384 57" fill="none" id="icon-tablet-left"><path d="M33.6 23.7L-216 0V57H33.6H384L33.6 0V23.7Z" fill="white"></path></svg><svg viewBox="0 0 384 57" fill="none" id="icon-tablet-right"><path d="M350.4 23.7V0L0 57H350.4H599.9V0L350.4 23.7Z" fill="white"></path></svg><svg fill="none" viewBox="0 0 22 18" id="icon-tg"><path fill="#fff" d="m21.44 1.62-3.17 14.95c-.24 1.05-.86 1.31-1.75.82l-4.83-3.56-2.33 2.24c-.25.26-.47.47-.97.47l.35-4.91 8.95-8.09c.39-.35-.09-.54-.6-.2L6.01 10.32 1.26 8.82C.22 8.5.21 7.8 1.48 7.3L20.1.11c.87-.32 1.62.2 1.34 1.51Z"></path></svg><svg fill="none" viewBox="0 0 22 16" id="icon-tick"><path fill="#333" d="M21.8 1.3 20.77.23a.84.84 0 0 0-1.14 0L8.3 11.96 2.4 5.84a.84.84 0 0 0-1.14 0L.21 6.93c-.28.3-.28.89 0 1.18l7.42 7.7c.2.19.38.19.57.19.2 0 .38-.1.57-.2L21.61 2.5c.48-.3.48-.79.2-1.18Z"></path></svg><svg fill="none" viewBox="0 0 24 24" id="icon-vk"><g clip-path="url(#icon-vk_0)"><path fill="#fff" fill-rule="evenodd" d="M23.45 5.95c.17-.55 0-.95-.8-.95h-2.62c-.67 0-.98.35-1.14.73 0 0-1.34 3.2-3.23 5.27-.61.6-.89.8-1.22.8-.17 0-.42-.2-.42-.74V5.95c0-.66-.18-.95-.74-.95H9.15c-.42 0-.67.3-.67.6 0 .61.95.76 1.05 2.5v3.8c0 .84-.16.99-.5.99-.88 0-3.05-3.21-4.33-6.89-.25-.71-.5-1-1.17-1H.9c-.75 0-.9.35-.9.73 0 .68.89 4.07 4.14 8.55C6.32 17.34 9.38 19 12.15 19c1.67 0 1.88-.37 1.88-1v-2.32c0-.73.16-.88.69-.88.38 0 1.05.2 2.61 1.67C19.11 18.22 19.4 19 20.41 19h2.62c.75 0 1.13-.37.91-1.1-.24-.72-1.09-1.77-2.21-3.02-.62-.7-1.54-1.47-1.81-1.86-.4-.49-.28-.7 0-1.14 0 0 3.2-4.43 3.53-5.93Z" clip-rule="evenodd"></path></g><defs><clipPath id="icon-vk_0"><path fill="#fff" d="M0 0h24v24H0z"></path></clipPath></defs></svg><svg fill="none" viewBox="0 0 20 14" id="icon-youtube"><path fill="#fff" d="M17.18 0H2.81C1.31 0 0 1.3 0 2.8v8.3C0 12.7 1.3 14 2.81 14h14.37A2.8 2.8 0 0 0 20 11.2V2.8c.1-1.5-1.2-2.8-2.8-2.8ZM7.03 10.4V3.6L13.87 7l-6.84 3.4Z"></path></svg></svg>